solid OpenSCAD_Model
  facet normal 0 0 -1
    outer loop
      vertex 0 0 0
      vertex 0 18 0
      vertex 5 5 0
    endloop
  endfacet
  facet normal 0 0 -1
    outer loop
      vertex 0 0 0
      vertex 5 5 0
      vertex 13 5 0
    endloop
  endfacet
  facet normal -1 0 0
    outer loop
      vertex 0 0 0
      vertex 0 0 60
      vertex 0 18 60
    endloop
  endfacet
  facet normal 0 0 1
    outer loop
      vertex 0 0 60
      vertex 4.75 4.75 60
      vertex 0 18 60
    endloop
  endfacet
  facet normal 0 -1 0
    outer loop
      vertex 0 0 0
      vertex 18 0 60
      vertex 0 0 60
    endloop
  endfacet
  facet normal 0 0 1
    outer loop
      vertex 0 0 60
      vertex 18 0 60
      vertex 4.75 4.75 60
    endloop
  endfacet
  facet normal 0 0 -1
    outer loop
      vertex 0 18 0
      vertex 5 13 0
      vertex 5 5 0
    endloop
  endfacet
  facet normal -1 0 0
    outer loop
      vertex 0 0 0
      vertex 0 18 60
      vertex 0 18 0
    endloop
  endfacet
  facet normal 0 0 -1
    outer loop
      vertex 0 18 0
      vertex 18 18 0
      vertex 5 13 0
    endloop
  endfacet
  facet normal 0 1 0
    outer loop
      vertex 0 18 0
      vertex 0 18 60
      vertex 18 18 0
    endloop
  endfacet
  facet normal 0 0 1
    outer loop
      vertex 4.75 4.75 60
      vertex 4.75 13.25 60
      vertex 0 18 60
    endloop
  endfacet
  facet normal 0 0 1
    outer loop
      vertex 0 18 60
      vertex 4.75 13.25 60
      vertex 13.25 13.25 60
    endloop
  endfacet
  facet normal 0 0 -1
    outer loop
      vertex 0 0 0
      vertex 13 5 0
      vertex 18 0 0
    endloop
  endfacet
  facet normal 0 -1 0
    outer loop
      vertex 0 0 0
      vertex 18 0 0
      vertex 18 0 60
    endloop
  endfacet
  facet normal 0 0 -1
    outer loop
      vertex 18 0 0
      vertex 13 5 0
      vertex 13 13 0
    endloop
  endfacet
  facet normal 1 0 0
    outer loop
      vertex 18 0 0
      vertex 18 18 0
      vertex 18 0 60
    endloop
  endfacet
  facet normal 0 0 1
    outer loop
      vertex 4.75 4.75 60
      vertex 18 0 60
      vertex 13.25 4.75 60
    endloop
  endfacet
  facet normal 0 0 1
    outer loop
      vertex 13.25 4.75 60
      vertex 18 0 60
      vertex 13.25 13.25 60
    endloop
  endfacet
  facet normal 0 0 -1
    outer loop
      vertex 18 18 0
      vertex 13 13 0
      vertex 5 13 0
    endloop
  endfacet
  facet normal 0 0 -1
    outer loop
      vertex 18 0 0
      vertex 13 13 0
      vertex 18 18 0
    endloop
  endfacet
  facet normal 0 1 0
    outer loop
      vertex 0 18 60
      vertex 18 18 60
      vertex 18 18 0
    endloop
  endfacet
  facet normal 0 0 1
    outer loop
      vertex 0 18 60
      vertex 13.25 13.25 60
      vertex 18 18 60
    endloop
  endfacet
  facet normal 1 0 0
    outer loop
      vertex 18 0 60
      vertex 18 18 0
      vertex 18 18 60
    endloop
  endfacet
  facet normal 0 0 1
    outer loop
      vertex 18 0 60
      vertex 18 18 60
      vertex 13.25 13.25 60
    endloop
  endfacet
  facet normal 1 0 0
    outer loop
      vertex 4.75 4.75 52
      vertex 4.75 13.25 60
      vertex 4.75 4.75 60
    endloop
  endfacet
  facet normal 0 1 0
    outer loop
      vertex 4.75 4.75 52
      vertex 4.75 4.75 60
      vertex 13.25 4.75 52
    endloop
  endfacet
  facet normal 1 0 0
    outer loop
      vertex 4.75 4.75 52
      vertex 4.75 13.25 52
      vertex 4.75 13.25 60
    endloop
  endfacet
  facet normal 0 0 1
    outer loop
      vertex 4.75 4.75 52
      vertex 13.25 13.25 52
      vertex 4.75 13.25 52
    endloop
  endfacet
  facet normal 0 -1 0
    outer loop
      vertex 4.75 13.25 52
      vertex 13.25 13.25 60
      vertex 4.75 13.25 60
    endloop
  endfacet
  facet normal 0 1 0
    outer loop
      vertex 4.75 4.75 60
      vertex 13.25 4.75 60
      vertex 13.25 4.75 52
    endloop
  endfacet
  facet normal 0 0 1
    outer loop
      vertex 4.75 4.75 52
      vertex 13.25 4.75 52
      vertex 13.25 13.25 52
    endloop
  endfacet
  facet normal -1 0 0
    outer loop
      vertex 13.25 4.75 52
      vertex 13.25 4.75 60
      vertex 13.25 13.25 52
    endloop
  endfacet
  facet normal 0 -1 0
    outer loop
      vertex 4.75 13.25 52
      vertex 13.25 13.25 52
      vertex 13.25 13.25 60
    endloop
  endfacet
  facet normal -1 0 0
    outer loop
      vertex 13.25 4.75 60
      vertex 13.25 13.25 60
      vertex 13.25 13.25 52
    endloop
  endfacet
  facet normal -1 0 0
    outer loop
      vertex 5 5 -4
      vertex 5 5 0
      vertex 5 13 -4
    endloop
  endfacet
  facet normal 0 -1 0
    outer loop
      vertex 5 5 -4
      vertex 13 5 0
      vertex 5 5 0
    endloop
  endfacet
  facet normal -1 0 0
    outer loop
      vertex 5 13 -4
      vertex 5 5 0
      vertex 5 13 0
    endloop
  endfacet
  facet normal 0 0 -1
    outer loop
      vertex 5 5 -4
      vertex 5 13 -4
      vertex 13 13 -4
    endloop
  endfacet
  facet normal 0 1 0
    outer loop
      vertex 5 13 -4
      vertex 5 13 0
      vertex 13 13 -4
    endloop
  endfacet
  facet normal 0 -1 0
    outer loop
      vertex 5 5 -4
      vertex 13 5 -4
      vertex 13 5 0
    endloop
  endfacet
  facet normal 0 0 -1
    outer loop
      vertex 5 5 -4
      vertex 13 13 -4
      vertex 13 5 -4
    endloop
  endfacet
  facet normal 1 0 0
    outer loop
      vertex 13 5 -4
      vertex 13 13 0
      vertex 13 5 0
    endloop
  endfacet
  facet normal 0 1 0
    outer loop
      vertex 13 13 -4
      vertex 5 13 0
      vertex 13 13 0
    endloop
  endfacet
  facet normal 1 0 0
    outer loop
      vertex 13 5 -4
      vertex 13 13 -4
      vertex 13 13 0
    endloop
  endfacet
endsolid OpenSCAD_Model
